<svg width="113" height="78" viewBox="0 0 113 78" fill="none" xmlns="http://www.w3.org/2000/svg">
<path d="M9.86648 70H6.91193L15.4574 46.7273H18.3665L26.9119 70H23.9574L17.0028 50.4091H16.821L9.86648 70ZM10.9574 60.9091H22.8665V63.4091H10.9574V60.9091ZM30.1733 70V52.5455H32.7642V55.1818H32.946C33.2642 54.3182 33.84 53.6174 34.6733 53.0795C35.5066 52.5417 36.446 52.2727 37.4915 52.2727C37.6884 52.2727 37.9347 52.2765 38.2301 52.2841C38.5256 52.2917 38.7491 52.303 38.9006 52.3182V55.0455C38.8097 55.0227 38.6013 54.9886 38.2756 54.9432C37.9574 54.8902 37.6203 54.8636 37.2642 54.8636C36.4157 54.8636 35.6581 55.0417 34.9915 55.3977C34.3324 55.7462 33.8097 56.2311 33.4233 56.8523C33.0445 57.4659 32.8551 58.1667 32.8551 58.9545V70H30.1733ZM50.7642 52.5455V54.8182H41.7188V52.5455H50.7642ZM44.3551 48.3636H47.0369V65C47.0369 65.7576 47.1468 66.3258 47.3665 66.7045C47.5938 67.0758 47.8816 67.3258 48.2301 67.4545C48.5862 67.5758 48.9612 67.6364 49.3551 67.6364C49.6506 67.6364 49.893 67.6212 50.0824 67.5909C50.2718 67.553 50.4233 67.5227 50.5369 67.5L51.0824 69.9091C50.9006 69.9773 50.6468 70.0455 50.321 70.1136C49.9953 70.1894 49.5824 70.2273 49.0824 70.2273C48.3248 70.2273 47.5824 70.0644 46.8551 69.7386C46.1354 69.4129 45.5369 68.9167 45.0597 68.25C44.59 67.5833 44.3551 66.7424 44.3551 65.7273V48.3636ZM54.7983 70V52.5455H57.4801V70H54.7983ZM56.1619 49.6364C55.6392 49.6364 55.1884 49.4583 54.8097 49.1023C54.4384 48.7462 54.2528 48.3182 54.2528 47.8182C54.2528 47.3182 54.4384 46.8902 54.8097 46.5341C55.1884 46.178 55.6392 46 56.1619 46C56.6847 46 57.1316 46.178 57.5028 46.5341C57.8816 46.8902 58.071 47.3182 58.071 47.8182C58.071 48.3182 57.8816 48.7462 57.5028 49.1023C57.1316 49.4583 56.6847 49.6364 56.1619 49.6364ZM74.7557 56.4545L72.3466 57.1364C72.1951 56.7348 71.9716 56.3447 71.6761 55.9659C71.3883 55.5795 70.9943 55.2614 70.4943 55.0114C69.9943 54.7614 69.3542 54.6364 68.5739 54.6364C67.5057 54.6364 66.6155 54.8826 65.9034 55.375C65.1989 55.8598 64.8466 56.4773 64.8466 57.2273C64.8466 57.8939 65.089 58.4205 65.5739 58.8068C66.0587 59.1932 66.8163 59.5152 67.8466 59.7727L70.4375 60.4091C71.9981 60.7879 73.161 61.3674 73.9261 62.1477C74.6913 62.9205 75.0739 63.9167 75.0739 65.1364C75.0739 66.1364 74.786 67.0303 74.2102 67.8182C73.642 68.6061 72.8466 69.2273 71.8239 69.6818C70.8011 70.1364 69.6117 70.3636 68.2557 70.3636C66.4754 70.3636 65.0019 69.9773 63.8352 69.2045C62.6686 68.4318 61.9299 67.303 61.6193 65.8182L64.1648 65.1818C64.4072 66.1212 64.8655 66.8258 65.5398 67.2955C66.2216 67.7652 67.1117 68 68.2102 68C69.4602 68 70.4527 67.7348 71.1875 67.2045C71.9299 66.6667 72.3011 66.0227 72.3011 65.2727C72.3011 64.6667 72.089 64.1591 71.6648 63.75C71.2405 63.3333 70.589 63.0227 69.7102 62.8182L66.8011 62.1364C65.2027 61.7576 64.0284 61.1705 63.2784 60.375C62.536 59.572 62.1648 58.5682 62.1648 57.3636C62.1648 56.3788 62.4413 55.5076 62.9943 54.75C63.5549 53.9924 64.3163 53.3977 65.2784 52.9659C66.2481 52.5341 67.3466 52.3182 68.5739 52.3182C70.3011 52.3182 71.6572 52.697 72.642 53.4545C73.6345 54.2121 74.339 55.2121 74.7557 56.4545ZM79.1108 70V52.5455H81.7017V55.1818H81.8835C82.2017 54.3182 82.7775 53.6174 83.6108 53.0795C84.4441 52.5417 85.3835 52.2727 86.429 52.2727C86.6259 52.2727 86.8722 52.2765 87.1676 52.2841C87.4631 52.2917 87.6866 52.303 87.8381 52.3182V55.0455C87.7472 55.0227 87.5388 54.9886 87.2131 54.9432C86.8949 54.8902 86.5578 54.8636 86.2017 54.8636C85.3532 54.8636 84.5956 55.0417 83.929 55.3977C83.2699 55.7462 82.7472 56.2311 82.3608 56.8523C81.982 57.4659 81.7926 58.1667 81.7926 58.9545V70H79.1108ZM93.2756 76.5455C92.821 76.5455 92.4157 76.5076 92.0597 76.4318C91.7036 76.3636 91.4574 76.2955 91.321 76.2273L92.0028 73.8636C92.6544 74.0303 93.2301 74.0909 93.7301 74.0455C94.2301 74 94.6733 73.7765 95.0597 73.375C95.4536 72.9811 95.8134 72.3409 96.1392 71.4545L96.6392 70.0909L90.1847 52.5455H93.0938L97.9119 66.4545H98.0938L102.912 52.5455H105.821L98.4119 72.5455C98.0786 73.447 97.6657 74.1932 97.1733 74.7841C96.6809 75.3826 96.1089 75.8258 95.4574 76.1136C94.8134 76.4015 94.0862 76.5455 93.2756 76.5455Z" fill="#D5906E"/>
<path d="M2.02273 31V7.72727H17.7045V11.7841H6.94318V17.3295H16.8977V21.3864H6.94318V26.9432H17.75V31H2.02273ZM26.5028 31.3295C25.3892 31.3295 24.3968 31.1364 23.5256 30.75C22.6544 30.3561 21.965 29.7765 21.4574 29.0114C20.9574 28.2386 20.7074 27.2765 20.7074 26.125C20.7074 25.1553 20.8854 24.3409 21.2415 23.6818C21.5975 23.0227 22.0824 22.4924 22.696 22.0909C23.3097 21.6894 24.0066 21.3864 24.7869 21.1818C25.5748 20.9773 26.4006 20.8333 27.2642 20.75C28.2794 20.6439 29.0975 20.5455 29.7188 20.4545C30.34 20.3561 30.7907 20.2121 31.071 20.0227C31.3513 19.8333 31.4915 19.553 31.4915 19.1818V19.1136C31.4915 18.3939 31.2642 17.8371 30.8097 17.4432C30.3627 17.0492 29.7263 16.8523 28.9006 16.8523C28.0294 16.8523 27.3362 17.0455 26.821 17.4318C26.3059 17.8106 25.965 18.2879 25.7983 18.8636L21.321 18.5C21.5483 17.4394 21.9953 16.5227 22.6619 15.75C23.3286 14.9697 24.1884 14.3712 25.2415 13.9545C26.3021 13.5303 27.5294 13.3182 28.9233 13.3182C29.893 13.3182 30.821 13.4318 31.7074 13.6591C32.6013 13.8864 33.393 14.2386 34.0824 14.7159C34.7794 15.1932 35.3286 15.8068 35.7301 16.5568C36.1316 17.2992 36.3324 18.1894 36.3324 19.2273V31H31.7415V28.5795H31.6051C31.3248 29.125 30.9498 29.6061 30.4801 30.0227C30.0104 30.4318 29.446 30.7538 28.7869 30.9886C28.1278 31.2159 27.3665 31.3295 26.5028 31.3295ZM27.8892 27.9886C28.6013 27.9886 29.2301 27.8485 29.7756 27.5682C30.321 27.2803 30.7491 26.8939 31.0597 26.4091C31.3703 25.9242 31.5256 25.375 31.5256 24.7614V22.9091C31.3741 23.0076 31.1657 23.0985 30.9006 23.1818C30.643 23.2576 30.3513 23.3295 30.0256 23.3977C29.6998 23.4583 29.3741 23.5152 29.0483 23.5682C28.7225 23.6136 28.4271 23.6553 28.1619 23.6932C27.5938 23.7765 27.0975 23.9091 26.6733 24.0909C26.2491 24.2727 25.9195 24.5189 25.6847 24.8295C25.4498 25.1326 25.3324 25.5114 25.3324 25.9659C25.3324 26.625 25.571 27.1288 26.0483 27.4773C26.5331 27.8182 27.1468 27.9886 27.8892 27.9886ZM40.0881 31V13.5455H44.7812V16.5909H44.9631C45.2813 15.5076 45.8153 14.6894 46.5653 14.1364C47.3153 13.5758 48.179 13.2955 49.1562 13.2955C49.3987 13.2955 49.66 13.3106 49.9403 13.3409C50.2206 13.3712 50.4669 13.4129 50.679 13.4659V17.7614C50.4517 17.6932 50.1373 17.6326 49.7358 17.5795C49.3343 17.5265 48.9669 17.5 48.6335 17.5C47.9214 17.5 47.285 17.6553 46.7244 17.9659C46.1714 18.2689 45.732 18.6932 45.4062 19.2386C45.0881 19.7841 44.929 20.4129 44.929 21.125V31H40.0881ZM63.3409 13.5455V17.1818H52.8295V13.5455H63.3409ZM55.2159 9.36364H60.0568V25.6364C60.0568 26.0833 60.125 26.4318 60.2614 26.6818C60.3977 26.9242 60.5871 27.0947 60.8295 27.1932C61.0795 27.2917 61.3674 27.3409 61.6932 27.3409C61.9205 27.3409 62.1477 27.322 62.375 27.2841C62.6023 27.2386 62.7765 27.2045 62.8977 27.1818L63.6591 30.7841C63.4167 30.8598 63.0758 30.947 62.6364 31.0455C62.197 31.1515 61.6629 31.2159 61.0341 31.2386C59.8674 31.2841 58.8447 31.1288 57.9659 30.7727C57.0947 30.4167 56.4167 29.8636 55.9318 29.1136C55.447 28.3636 55.2083 27.4167 55.2159 26.2727V9.36364ZM71.7102 20.9091V31H66.8693V7.72727H71.5739V16.625H71.7784C72.1723 15.5947 72.8087 14.7879 73.6875 14.2045C74.5663 13.6136 75.6686 13.3182 76.9943 13.3182C78.2064 13.3182 79.2633 13.5833 80.1648 14.1136C81.0739 14.6364 81.7784 15.3902 82.2784 16.375C82.786 17.3523 83.036 18.5227 83.0284 19.8864V31H78.1875V20.75C78.1951 19.6742 77.9223 18.8371 77.3693 18.2386C76.8239 17.6402 76.0587 17.3409 75.0739 17.3409C74.4148 17.3409 73.8314 17.4811 73.3239 17.7614C72.8239 18.0417 72.4299 18.4508 72.142 18.9886C71.8617 19.5189 71.7178 20.1591 71.7102 20.9091ZM91.679 7.72727V31H86.8381V7.72727H91.679ZM98.5455 37.5455C97.9318 37.5455 97.3561 37.4962 96.8182 37.3977C96.2879 37.3068 95.8485 37.1894 95.5 37.0455L96.5909 33.4318C97.1591 33.6061 97.6705 33.7008 98.125 33.7159C98.5871 33.7311 98.9848 33.625 99.3182 33.3977C99.6591 33.1705 99.9356 32.7841 100.148 32.2386L100.432 31.5L94.1705 13.5455H99.2614L102.875 26.3636H103.057L106.705 13.5455H111.83L105.045 32.8864C104.72 33.8258 104.277 34.6439 103.716 35.3409C103.163 36.0455 102.462 36.5871 101.614 36.9659C100.765 37.3523 99.7424 37.5455 98.5455 37.5455Z" fill="white"/>
</svg>
